<?xml version="1.0" standalone="no"?>
<!DOCTYPE svg PUBLIC "-//W3C//DTD SVG 20010904//EN"
 "http://www.w3.org/TR/2001/REC-SVG-20010904/DTD/svg10.dtd">
<svg version="1.0" xmlns="http://www.w3.org/2000/svg"
 width="476.000000pt" height="373.000000pt" viewBox="0 0 476.000000 373.000000"
 preserveAspectRatio="xMidYMid meet">

<g transform="translate(0.000000,373.000000) scale(0.100000,-0.100000)"
fill="#000000" stroke="none">
<path d="M2135 3536 c-54 -19 -79 -34 -108 -67 -21 -24 -41 -55 -43 -69 -5
-23 -15 -28 -91 -48 -95 -24 -163 -56 -300 -139 -51 -30 -99 -53 -106 -50 -8
3 -50 60 -93 127 -142 218 -160 240 -197 240 -18 0 -41 -6 -52 -13 -11 -8 -60
-37 -108 -66 l-88 -51 7 35 c8 44 -8 65 -51 65 -26 0 -42 -10 -83 -54 -28 -29
-72 -86 -97 -126 -37 -56 -61 -80 -109 -110 -129 -81 -136 -88 -136 -120 0
-16 5 -30 10 -30 6 0 10 -5 10 -10 0 -6 26 -52 58 -103 32 -51 76 -121 97
-156 l38 -64 -16 -46 c-21 -63 -47 -183 -47 -222 0 -22 23 -69 80 -158 134
-215 147 -261 82 -296 -35 -19 -37 -23 -35 -65 2 -62 134 -460 189 -569 71
-143 161 -211 286 -219 l66 -4 86 -83 c144 -139 310 -238 516 -308 156 -53
270 -72 435 -71 320 3 630 111 838 295 46 40 49 41 67 24 50 -45 154 -56 297
-31 100 18 132 34 173 86 17 22 39 40 47 40 9 0 36 11 60 25 35 21 43 31 43
54 0 27 3 29 57 35 61 7 102 28 145 73 44 46 58 93 58 195 0 107 -20 160 -76
206 l-35 29 45 44 c52 53 66 94 66 205 0 94 -25 156 -78 189 -39 25 -39 35 0
60 48 31 72 87 76 178 2 42 1 94 -3 113 -7 38 -73 119 -106 129 -27 9 -24 21
10 35 70 29 101 94 101 215 0 89 -14 140 -51 187 -16 20 -29 48 -29 62 0 14
-14 41 -31 61 -30 33 -34 35 -98 35 -36 0 -102 3 -147 6 -79 7 -81 8 -94 38
-7 17 -12 51 -11 76 6 120 -149 206 -249 138 -55 -38 -75 -73 -74 -130 0 -37
-5 -57 -18 -70 -10 -10 -18 -24 -18 -32 0 -15 -80 -26 -186 -26 -56 0 -74 6
-174 56 -66 34 -129 59 -156 62 -48 5 -63 17 -45 35 6 6 11 21 11 34 0 27 -20
30 -55 7 -38 -25 -49 -12 -21 21 31 35 36 71 9 60 -33 -14 -117 -35 -140 -35
-13 0 -64 19 -115 41 -120 55 -192 61 -293 25z m271 -79 c45 -20 103 -40 129
-43 30 -5 42 -10 33 -15 -25 -16 -73 -9 -135 20 -146 70 -301 55 -372 -35 -10
-13 -21 -24 -24 -24 -14 0 9 43 39 74 74 76 194 85 330 23z m-1129 -97 c39
-58 108 -162 153 -232 46 -72 102 -146 128 -169 l47 -42 -75 7 c-41 3 -95 12
-119 19 -62 19 -64 53 -4 71 18 6 25 2 35 -18 6 -14 15 -26 19 -26 11 0 -57
127 -83 156 -10 11 -18 28 -18 37 0 9 -4 19 -10 22 -21 13 -272 -128 -413
-232 -78 -58 -152 -110 -165 -116 -17 -8 -22 -17 -19 -34 2 -13 1 -26 -3 -28
-10 -6 -31 20 -64 80 -16 28 -56 92 -89 144 -51 77 -59 96 -47 103 8 5 94 53
190 107 96 54 234 135 305 180 72 44 137 80 145 78 8 -1 47 -49 87 -107z
m2280 75 c36 -24 49 -84 30 -139 -13 -37 -13 -46 -3 -46 8 0 19 -13 25 -29 11
-25 19 -29 63 -34 49 -6 67 -18 68 -43 0 -8 -79 -12 -262 -13 -144 -1 -266 -5
-270 -7 -4 -3 -8 1 -8 9 0 26 35 45 95 54 56 7 60 10 63 35 2 19 11 30 26 34
21 5 22 8 12 55 -13 63 -1 96 44 127 38 25 75 24 117 -3z m-2659 -6 c3 -15
-134 -157 -143 -148 -8 8 118 169 130 165 6 -1 11 -9 13 -17z m1122 -148 c0
-3 -9 -12 -20 -18 -11 -7 -22 -29 -25 -50 -11 -62 -17 -71 -25 -36 -10 42 -2
77 21 102 17 18 49 20 49 2z m-130 -11 c0 -13 -9 -22 -27 -26 -47 -11 -149
-60 -237 -114 -46 -27 -87 -50 -90 -50 -3 0 -6 7 -6 15 0 21 123 99 239 151
109 49 121 52 121 24z m1010 -30 c15 -8 19 -15 12 -22 -7 -7 -31 -2 -73 13
-72 25 -84 33 -75 48 6 10 88 -14 136 -39z m-591 -64 c61 -32 179 -75 204 -76
5 0 5 6 2 13 -4 6 3 1 14 -12 27 -30 24 -33 -21 -19 -49 15 -105 2 -139 -32
-37 -37 -91 -39 -113 -4 -30 45 -145 56 -187 18 -11 -9 -19 -15 -19 -12 0 16
72 157 82 162 32 14 109 -3 177 -38z m479 6 c19 -9 41 -29 50 -43 15 -26 14
-28 -21 -69 -92 -108 -70 -320 43 -395 l45 -30 -40 -21 c-55 -28 -94 -86 -102
-152 -3 -28 -7 -52 -9 -52 -15 0 -101 71 -136 112 -38 45 -43 57 -42 97 2 50
24 141 36 141 3 0 21 12 39 27 68 58 91 175 44 231 -23 28 -24 30 -10 78 30
99 42 108 103 76z m-890 -57 l22 -64 -21 -36 c-43 -73 -12 -177 70 -237 29
-21 40 -38 54 -87 26 -93 23 -121 -22 -177 -47 -59 -122 -105 -311 -190 -149
-67 -229 -114 -272 -160 -26 -28 -62 -100 -127 -249 l-30 -70 -11 30 c-21 55
-60 197 -60 219 0 37 -15 49 -49 41 l-31 -7 0 87 c0 47 -5 95 -10 106 -10 17
-7 19 20 19 63 0 100 71 64 124 -14 23 -14 25 18 49 18 14 69 43 114 65 44 22
125 74 180 114 54 40 131 96 169 123 66 46 84 63 85 76 0 3 -17 15 -38 27 -46
25 -114 79 -124 97 -5 9 24 30 100 72 103 57 170 91 183 92 3 1 16 -28 27 -64z
m1230 28 c-3 -16 -18 -18 -116 -21 -71 -2 -112 1 -112 7 0 16 58 26 178 29 46
2 53 0 50 -15z m873 -13 l24 -21 -95 7 c-60 4 -100 11 -110 20 -12 12 -2 14
72 14 72 0 90 -3 109 -20z m-12 -95 c54 -27 66 -57 65 -162 0 -77 -4 -98 -20
-120 -40 -53 -67 -65 -166 -74 -137 -11 -866 -10 -911 2 -111 29 -169 163
-118 275 19 42 71 89 105 95 11 2 243 3 517 2 432 -1 501 -4 528 -18z m-2873
-20 c-11 -8 -24 -15 -30 -15 -5 0 -1 7 10 15 10 8 24 14 29 14 6 0 1 -6 -9
-14z m204 0 c0 -20 -140 -89 -153 -76 -14 14 -1 28 56 61 57 33 97 39 97 15z
m835 -14 c-5 -16 0 -20 22 -23 28 -3 28 -3 -17 -35 -25 -18 -50 -37 -57 -42
-19 -17 -37 16 -34 62 2 26 38 57 67 57 20 0 24 -4 19 -19z m309 -8 c-13 -27
-13 -28 14 -33 26 -5 26 -6 -22 -33 -38 -21 -51 -25 -58 -15 -24 39 13 108 58
108 22 0 22 -1 8 -27z m-1358 -18 c-11 -8 -25 -15 -30 -15 -6 0 -2 7 8 15 11
8 25 15 30 15 6 0 2 -7 -8 -15z m882 -46 c0 -17 4 -44 7 -60 8 -35 -7 -38 -29
-7 -23 32 -31 85 -16 103 18 21 37 3 38 -36z m668 -12 c-4 -20 -16 -46 -26
-59 l-20 -23 6 65 c8 78 12 86 31 67 11 -11 14 -25 9 -50z m-317 -5 c21 -77
100 -122 172 -98 47 16 47 14 20 -73 -51 -164 -214 -252 -323 -175 -70 50
-115 112 -135 186 -9 37 -15 69 -12 73 3 3 20 -2 37 -10 67 -34 163 19 177 98
6 30 12 37 31 37 18 0 25 -8 33 -38z m-1071 -19 c0 -46 -1 -49 -39 -66 -22
-11 -74 -43 -116 -73 -64 -47 -81 -55 -113 -52 l-38 3 77 68 c59 53 214 167
227 167 1 0 2 -21 2 -47z m-200 -19 c-24 -57 -78 -90 -78 -49 0 13 80 88 87
81 2 -2 -2 -16 -9 -32z m447 -13 l100 -6 -80 -54 c-44 -30 -102 -72 -128 -93
-27 -21 -52 -36 -57 -33 -4 2 -10 35 -14 72 -4 37 -9 83 -13 102 l-6 34 49 -8
c27 -4 94 -10 149 -14z m-235 -145 l0 -74 -76 -41 c-76 -41 -109 -52 -86 -29
18 18 14 59 -9 84 l-20 22 34 26 c36 28 137 86 150 86 4 0 7 -33 7 -74z m-340
54 c0 -5 -27 -27 -60 -50 -32 -22 -66 -50 -75 -63 -52 -74 -75 -115 -75 -137
0 -22 6 -18 63 37 71 71 97 83 170 82 65 -1 99 -11 105 -28 4 -11 -5 -13 -41
-8 -88 12 -194 -40 -233 -115 -22 -42 -11 -46 32 -12 95 76 156 92 229 57 43
-21 46 -36 4 -21 -61 21 -175 -20 -213 -77 -23 -35 -4 -33 70 6 68 35 104 35
180 -1 59 -29 44 -44 -26 -25 -54 15 -56 15 -110 -13 -48 -24 -55 -31 -55 -57
0 -27 4 -30 40 -35 22 -3 46 -9 54 -14 24 -15 42 -75 36 -119 -8 -51 -20 -69
-62 -91 -18 -9 -33 -23 -33 -31 0 -21 -30 -19 -36 3 -12 43 -80 167 -145 267
-43 66 -71 120 -71 135 1 37 33 171 47 200 17 34 41 54 106 90 54 29 99 39 99
20z m3036 -195 c27 -13 57 -38 67 -54 18 -32 23 -91 7 -91 -5 0 -10 -12 -10
-27 0 -36 -37 -101 -73 -127 -32 -24 -33 -24 -502 -23 -562 1 -571 1 -590 17
-26 22 -55 89 -55 130 0 82 45 154 113 179 36 14 127 14 127 1 0 -21 -41 -51
-61 -45 -30 10 -105 -31 -129 -70 l-21 -34 20 -43 c11 -24 26 -50 33 -59 25
-30 83 -59 119 -59 42 0 98 34 116 70 15 30 17 99 3 136 -8 20 -7 32 3 48 8
11 17 33 21 49 l6 27 378 0 378 0 50 -25z m-1771 -122 c27 -18 64 -36 82 -39
45 -9 98 12 130 51 16 18 40 43 56 55 l27 21 0 -28 c0 -36 -104 -137 -159
-154 -36 -11 -43 -9 -100 21 -69 37 -118 91 -127 142 l-7 33 25 -35 c13 -19
46 -50 73 -67z m793 45 c-18 -26 -38 -35 -38 -16 0 18 20 38 38 38 12 0 12 -3
0 -22z m-908 -63 c27 -39 78 -85 134 -120 13 -9 10 -18 -24 -70 -73 -110 -60
-108 -113 -18 -54 91 -73 168 -56 220 6 18 14 33 19 33 5 0 23 -20 40 -45z
m497 23 c25 -56 -18 -199 -87 -288 l-19 -25 -15 35 c-9 19 -32 56 -51 82 l-36
47 45 26 c48 28 100 82 118 121 14 30 32 31 45 2z m420 -33 c-7 -13 -14 -20
-15 -14 -2 5 2 16 8 24 18 21 20 18 7 -10z m79 -40 c-4 -14 -10 -25 -15 -25
-5 0 -4 16 2 36 12 39 23 29 13 -11z m-1124 -125 c-2 -68 -6 -128 -9 -133 -3
-5 -28 -7 -54 -5 -37 4 -49 2 -49 -8 0 -19 -29 -18 -36 1 -3 8 11 64 31 124
31 94 41 113 68 130 18 11 37 19 42 17 6 -2 9 -50 7 -126z m740 109 c30 -21
58 -72 58 -104 0 -9 -5 -13 -11 -9 -12 7 -7 -16 17 -73 16 -40 26 -43 19 -5
l-6 27 15 -25 c17 -28 21 -54 7 -46 -5 3 -28 -1 -52 -10 -24 -8 -54 -12 -66
-9 -20 5 -23 2 -23 -26 0 -23 12 -44 45 -82 44 -48 46 -52 41 -101 -3 -28 -23
-98 -45 -156 -22 -58 -41 -109 -41 -114 0 -15 -131 -269 -166 -322 -19 -28
-34 -54 -34 -58 0 -3 -17 -44 -39 -90 -21 -46 -42 -93 -46 -105 -4 -13 -9 -21
-11 -18 -2 2 18 82 45 178 160 566 209 777 235 1003 9 76 16 145 16 152 0 19
7 18 42 -7z m-902 -81 c0 -7 -7 -22 -15 -32 -30 -39 -57 -145 -50 -192 3 -24
10 -44 14 -44 4 0 14 -11 21 -25 11 -21 11 -29 -5 -60 -19 -33 -19 -36 -1 -86
11 -28 29 -94 41 -146 20 -83 21 -93 6 -87 -46 18 -90 26 -128 20 l-42 -6 -11
43 c-28 109 -73 253 -83 265 -15 18 -25 -8 -26 -65 -1 -61 -22 -144 -43 -175
-27 -39 -57 -44 -109 -17 -24 12 -46 20 -47 18 -2 -2 -10 9 -19 24 -14 27 -12
34 27 130 79 191 113 258 147 288 45 39 275 154 316 158 4 1 7 -5 7 -11z m559
-53 c29 -38 36 -81 17 -110 -14 -21 -24 -25 -66 -25 -39 0 -52 4 -64 22 -23
32 -20 66 10 105 32 42 73 45 103 8z m216 -87 c-29 -191 -93 -478 -106 -478
-3 0 -11 44 -18 98 -6 53 -20 140 -30 192 -19 94 -19 95 1 117 l20 22 25 -27
c13 -15 26 -22 29 -16 2 6 20 35 39 64 19 30 35 58 35 62 0 4 3 8 6 8 3 0 3
-19 -1 -42z m290 32 c3 -5 1 -10 -4 -10 -6 0 -11 5 -11 10 0 6 2 10 4 10 3 0
8 -4 11 -10z m-739 -121 c13 -11 19 -8 38 16 l23 29 16 -25 c14 -22 13 -37
-14 -199 -16 -96 -29 -186 -29 -199 0 -48 -18 -6 -40 94 -41 188 -70 340 -70
370 0 29 2 28 30 -21 17 -29 37 -58 46 -65z m954 73 c0 -22 -43 -46 -75 -43
-38 3 -68 -10 -107 -47 -48 -45 -46 -95 8 -174 34 -49 84 -72 138 -64 84 14
127 91 106 191 -8 38 -8 59 -1 72 6 10 15 30 21 46 l10 27 387 0 c367 0 390
-1 420 -20 55 -33 67 -61 64 -153 -1 -45 -6 -86 -11 -91 -7 -7 -10 -5 -10 5 0
8 -12 -1 -26 -19 -14 -18 -45 -43 -67 -55 -41 -22 -50 -22 -432 -24 -214 -1
-434 -2 -487 -4 -77 -1 -103 2 -123 15 -35 23 -63 72 -71 123 -19 129 62 222
194 223 34 0 62 -4 62 -8z m-1081 -122 c1 -80 31 -218 117 -530 37 -133 62
-235 59 -238 -5 -5 -53 76 -127 216 -12 23 -27 42 -33 42 -11 0 -140 256 -180
358 l-18 43 77 78 c42 44 76 87 76 98 0 11 3 23 7 27 13 12 22 -26 22 -94z
m-859 20 c0 -23 -31 -40 -154 -85 -116 -42 -161 -48 -161 -21 0 15 19 26 95
51 52 18 120 44 150 57 60 27 70 27 70 -2z m1860 3 c0 -5 -5 -15 -10 -23 -7
-11 -12 -12 -21 -3 -6 6 -8 16 -5 22 8 12 36 15 36 4z m-651 -25 c18 -48 61
-370 61 -455 0 -92 -19 -171 -46 -194 -15 -12 -20 -34 -5 -25 8 5 -3 -48 -30
-146 -15 -55 -29 -54 -29 3 0 21 -4 39 -8 39 -7 0 -42 85 -42 103 0 5 6 5 13
2 6 -4 5 0 -4 7 -9 8 -27 46 -39 87 -20 67 -21 81 -11 189 11 119 32 265 52
360 10 51 11 52 45 52 27 0 36 -5 43 -22z m747 -84 c-4 -14 -9 -24 -12 -21 -3
2 -2 17 2 31 3 15 9 25 11 22 3 -3 2 -17 -1 -32z m-1925 -5 c56 -185 98 -360
93 -390 -11 -68 -14 -76 -26 -77 -7 0 -31 -5 -53 -11 -22 -6 -47 -11 -56 -11
-9 0 -44 36 -77 80 -50 66 -62 77 -67 61 -7 -23 41 -145 86 -217 44 -69 78
-104 124 -125 40 -18 40 -19 10 -19 -16 0 -53 13 -81 30 -96 55 -163 191 -267
547 l-16 52 98 30 c53 17 121 41 151 55 64 29 71 28 81 -5z m2839 -119 c0 -5
-15 -17 -32 -25 l-33 -16 28 25 c31 28 37 31 37 16z m-1120 -87 c0 -5 -11 -13
-25 -20 -27 -12 -28 -12 -19 11 6 16 44 23 44 9z m1079 -58 c41 -21 81 -72 81
-103 0 -25 -3 -23 -48 26 l-48 52 -447 0 c-465 0 -525 -4 -582 -43 -18 -12
-24 -14 -15 -4 8 9 29 23 45 31 27 14 28 16 8 16 -25 0 -101 -63 -113 -95 -8
-18 -9 -18 -9 5 -1 37 33 86 76 109 36 19 58 20 531 21 414 0 498 -2 521 -15z
m-2204 -94 c98 -44 151 -168 110 -256 -13 -29 -14 -29 -20 -8 -7 21 -8 20 -37
-13 -17 -19 -45 -42 -61 -51 -41 -21 -115 -13 -158 17 l-34 23 28 -29 c28 -31
35 -54 17 -54 -6 0 -30 19 -53 43 -43 42 -67 98 -67 153 0 41 37 111 76 142
66 52 132 64 199 33z m1265 -9 c0 -11 -34 -42 -47 -42 -19 0 -16 37 4 48 16
10 43 6 43 -6z m640 14 c0 -11 -19 -15 -25 -6 -3 5 1 10 9 10 9 0 16 -2 16 -4z
m-936 -186 c-30 -170 -77 -283 -148 -354 -36 -35 -145 -101 -153 -92 -3 3 31
72 75 153 44 81 99 186 122 233 35 71 104 159 115 148 2 -2 -3 -41 -11 -88z
m-748 -38 c4 -20 14 -42 23 -49 9 -7 12 -13 7 -13 -5 0 -1 -10 10 -22 11 -13
38 -61 59 -108 21 -47 51 -106 67 -131 32 -52 35 -69 13 -69 -71 0 -255 178
-255 247 0 11 10 42 22 69 14 32 21 69 21 106 0 53 1 55 13 32 7 -14 16 -42
20 -62z m1502 26 c12 -15 47 -151 57 -221 6 -45 4 -50 -25 -77 -44 -41 -65
-40 -55 3 11 44 7 128 -11 215 -8 40 -12 77 -9 82 9 14 31 12 43 -2z m-91
-118 c34 -163 31 -193 -23 -182 -19 3 -22 12 -28 100 -3 54 -11 114 -17 135
-12 44 -5 59 24 55 19 -3 25 -17 44 -108z m251 42 c16 -57 25 -129 18 -156 -6
-24 -72 -74 -82 -63 -3 3 0 16 7 28 8 16 10 55 5 134 -3 62 -3 115 1 118 11
12 40 -22 51 -61z m-360 -125 l5 -69 -29 4 c-41 4 -61 47 -40 86 9 15 21 41
27 57 10 28 11 29 21 11 6 -11 13 -51 16 -89z m-1783 25 c39 -37 75 -62 101
-70 50 -15 133 -16 169 -2 23 9 27 7 36 -18 15 -40 41 -154 36 -159 -7 -7
-123 54 -197 103 -80 53 -210 170 -210 190 0 8 1 14 3 14 2 0 30 -26 62 -58z
m1524 -2 c127 0 128 -7 16 -102 -71 -60 -231 -155 -242 -144 -6 5 16 132 32
186 7 25 16 58 19 73 l7 28 33 -20 c28 -18 50 -21 135 -21z m766 0 c9 -14 -10
-36 -35 -43 -17 -4 -20 0 -20 24 0 24 4 29 24 29 14 0 28 -5 31 -10z m-2130
-225 c107 -63 212 -106 344 -141 117 -32 374 -44 500 -25 187 30 342 81 481
161 l55 32 -35 -31 c-59 -53 -224 -129 -355 -163 -117 -31 -126 -32 -335 -32
-213 0 -216 0 -322 32 -142 43 -271 98 -324 138 -24 19 -67 47 -96 63 -29 17
-75 54 -103 82 l-50 52 75 -58 c41 -31 115 -81 165 -110z"/>
<path d="M1132 3403 c-22 -9 -34 -41 -22 -63 14 -26 56 -26 70 -1 14 27 13 37
-6 55 -16 17 -21 18 -42 9z"/>
<path d="M991 3314 c-26 -18 -25 -51 2 -68 23 -15 51 3 55 37 4 35 -26 52 -57
31z"/>
<path d="M1235 3276 c-22 -12 -78 -44 -125 -71 -105 -59 -420 -265 -420 -275
0 -4 8 -17 18 -29 l17 -22 95 72 c129 99 234 166 365 235 61 31 112 59 114 60
6 5 -9 54 -17 54 -4 -1 -25 -11 -47 -24z"/>
<path d="M792 3198 c-27 -27 -6 -68 34 -68 28 0 46 23 42 52 -2 17 -10 24 -33
26 -17 2 -36 -3 -43 -10z"/>
<path d="M651 3116 c-29 -34 10 -93 46 -70 29 18 39 42 27 62 -14 22 -57 27
-73 8z"/>
<path d="M3441 3394 c-25 -32 -27 -61 -4 -94 34 -50 62 -53 104 -11 34 35 37
68 8 105 -15 19 -30 26 -54 26 -24 0 -39 -7 -54 -26z m72 -60 c-3 -8 -9 -14
-13 -14 -14 0 -22 20 -16 37 5 12 9 13 21 3 7 -6 11 -18 8 -26z"/>
<path d="M3090 3020 c-16 -16 -28 -18 -70 -13 -50 6 -50 5 -100 -44 -59 -59
-62 -80 -21 -145 87 -136 251 -87 251 74 0 35 6 68 15 81 13 20 13 25 -1 45
-19 27 -48 28 -74 2z m-70 -74 c0 -7 -7 -19 -16 -26 -12 -11 -18 -11 -31 2 -8
9 -12 21 -9 27 10 16 56 14 56 -3z"/>
<path d="M3230 2860 c0 -64 3 -80 15 -80 10 0 15 10 15 34 0 19 5 38 10 41 6
3 10 3 10 -2 0 -4 5 -15 10 -23 7 -12 13 -11 34 10 l26 23 0 -41 c0 -31 4 -42
15 -42 12 0 15 16 15 80 0 91 -12 103 -51 49 l-22 -32 -26 32 c-42 50 -51 42
-51 -49z"/>
<path d="M3427 2871 c-15 -38 -27 -74 -27 -80 0 -16 30 -13 36 4 4 8 18 15 34
15 16 0 30 -7 34 -15 6 -18 36 -20 36 -3 0 23 -63 148 -75 148 -6 0 -23 -31
-38 -69z m53 -12 c0 -5 -4 -9 -10 -9 -5 0 -10 7 -10 16 0 8 5 12 10 9 6 -3 10
-10 10 -16z"/>
<path d="M3560 2860 c0 -64 3 -80 15 -80 9 0 15 9 15 24 0 38 17 40 41 6 13
-16 31 -30 41 -30 25 0 23 13 -7 48 -30 36 -31 53 -5 77 25 23 25 35 0 35 -11
0 -27 -11 -36 -25 -9 -14 -20 -25 -25 -25 -5 0 -9 11 -9 25 0 16 -6 25 -15 25
-12 0 -15 -16 -15 -80z"/>
<path d="M3700 2891 c0 -27 3 -63 6 -80 7 -31 8 -32 58 -29 37 2 51 7 51 18 0
9 -13 17 -33 20 -39 6 -43 24 -7 28 37 5 32 32 -6 32 -41 0 -33 24 9 28 20 2
32 9 32 18 0 10 -14 14 -55 14 l-55 0 0 -49z"/>
<path d="M3870 2920 c0 -11 6 -20 14 -20 9 0 16 -18 21 -55 4 -34 11 -55 19
-55 9 0 11 15 8 54 -4 51 -3 55 19 58 13 1 25 11 27 21 3 14 -5 17 -52 17 -49
0 -56 -2 -56 -20z"/>
<path d="M2260 2783 c0 -17 35 -26 70 -18 50 11 36 32 -20 31 -31 -1 -50 -5
-50 -13z"/>
<path d="M2218 2709 c-30 -11 -36 -24 -15 -31 18 -7 207 -1 214 6 27 27 -140
48 -199 25z"/>
<path d="M2282 2643 c-19 -4 -21 -7 -11 -19 21 -25 101 -12 85 15 -7 11 -30
12 -74 4z"/>
<path d="M3554 2516 c-3 -8 -4 -25 -2 -38 3 -21 8 -23 55 -24 51 0 51 0 57 35
7 45 1 49 -34 29 -25 -14 -31 -14 -41 -2 -15 18 -28 18 -35 0z"/>
<path d="M3384 2506 c-10 -26 1 -51 21 -51 23 0 32 30 15 50 -16 19 -29 19
-36 1z"/>
<path d="M3440 2490 c0 -30 1 -31 43 -28 37 3 42 6 42 28 0 22 -5 25 -42 28
-42 3 -43 2 -43 -28z"/>
<path d="M3690 2484 l0 -35 42 3 c40 3 43 5 45 36 3 32 2 32 -42 32 -45 0 -45
0 -45 -36z"/>
<path d="M3225 2405 c-14 -13 -25 -31 -25 -40 0 -18 43 -65 60 -65 18 0 50 20
50 30 0 6 -13 10 -29 10 -17 0 -31 6 -35 16 -9 23 2 34 35 34 31 0 41 23 13
34 -28 11 -44 6 -69 -19z"/>
<path d="M3329 2422 c-1 -4 -2 -31 -3 -59 l-2 -53 83 0 c67 0 83 3 83 15 0 9
-10 16 -27 16 -24 2 -25 2 -5 6 12 2 22 11 22 18 0 7 -10 16 -22 18 -20 4 -19
4 5 6 17 0 27 7 27 16 0 11 -11 15 -40 15 l-40 0 0 -40 c0 -36 -2 -40 -25 -40
-22 0 -25 4 -25 39 0 25 -5 41 -15 45 -8 3 -15 2 -16 -2z"/>
<path d="M3847 2423 c-4 -3 -7 -33 -7 -65 0 -45 3 -58 15 -58 8 0 15 9 15 20
0 11 3 20 8 20 4 0 13 -9 20 -20 12 -20 42 -28 42 -11 0 5 -7 14 -15 21 -14
12 -14 15 0 30 21 23 19 47 -4 60 -22 11 -64 13 -74 3z m53 -38 c0 -8 -7 -15
-15 -15 -16 0 -20 12 -8 23 11 12 23 8 23 -8z"/>
<path d="M3525 2378 c-9 -24 -19 -47 -21 -53 -3 -6 18 -10 51 -10 33 0 54 4
51 10 -32 79 -40 95 -51 95 -7 0 -21 -19 -30 -42z"/>
<path d="M3629 2380 c-1 -22 -2 -45 -3 -52 -1 -6 5 -13 12 -15 7 -3 12 4 12
16 0 27 16 27 30 1 6 -11 17 -20 25 -20 11 0 15 13 15 55 0 30 -4 55 -10 55
-9 0 -14 -21 -11 -45 1 -5 -9 2 -22 18 -32 38 -47 34 -48 -13z"/>
<path d="M3740 2365 l0 -55 39 0 c22 0 43 5 46 10 4 6 -5 10 -19 10 -14 0 -26
5 -26 10 0 6 9 10 20 10 32 0 24 30 -7 31 l-28 1 29 7 c49 10 44 31 -8 31
l-46 0 0 -55z"/>
<path d="M3280 2046 c0 -60 2 -66 20 -66 19 0 21 5 18 62 -2 50 -6 63 -20 66
-16 3 -18 -5 -18 -62z"/>
<path d="M3347 2104 c-14 -14 -7 -34 13 -34 18 0 20 -7 20 -55 0 -47 3 -55 19
-55 23 0 31 19 31 71 0 32 3 39 18 37 11 -2 17 3 17 17 0 17 -8 20 -55 23 -31
2 -59 0 -63 -4z"/>
<path d="M3497 2103 c-4 -3 -7 -34 -7 -69 l0 -62 43 5 c62 7 67 10 67 38 0 21
-5 25 -30 25 -20 0 -30 5 -30 15 0 10 11 15 35 15 28 0 35 4 35 20 0 18 -7 20
-53 20 -30 0 -57 -3 -60 -7z"/>
<path d="M3644 2096 c-3 -7 -4 -38 -2 -67 2 -40 7 -54 18 -54 9 0 16 11 18 28
3 28 4 28 24 11 19 -18 20 -18 33 -1 16 22 25 22 25 -2 0 -23 25 -45 40 -36
10 6 12 95 2 123 -6 18 -26 15 -47 -8 -10 -11 -23 -20 -30 -20 -7 0 -20 9 -30
20 -21 23 -43 26 -51 6z"/>
<path d="M3529 1949 c-27 -27 -21 -51 19 -68 42 -19 41 -31 -2 -24 -18 3 -36
1 -40 -5 -9 -15 33 -42 64 -42 68 0 81 62 20 92 -36 19 -34 21 13 18 17 -1 27
3 27 12 0 40 -67 51 -101 17z"/>
<path d="M3300 1885 l0 -75 55 0 c48 0 55 2 55 20 0 15 -7 20 -29 20 -31 0
-41 18 -41 78 0 25 -4 32 -20 32 -18 0 -20 -7 -20 -75z"/>
<path d="M3440 1885 c0 -68 2 -75 20 -75 18 0 20 7 20 75 0 68 -2 75 -20 75
-18 0 -20 -7 -20 -75z"/>
<path d="M3650 1940 c0 -13 7 -20 20 -20 18 0 20 -7 20 -55 0 -47 3 -55 19
-55 15 0 20 10 26 55 5 46 10 55 26 55 14 0 19 6 17 18 -3 14 -16 18 -66 20
-57 3 -62 1 -62 -18z"/>
<path d="M2998 1643 c6 -2 18 -2 25 0 6 3 1 5 -13 5 -14 0 -19 -2 -12 -5z"/>
<path d="M1653 1475 c-51 -36 -51 -154 0 -190 54 -38 127 -5 127 58 0 43 -26
67 -73 67 -29 0 -35 3 -30 16 5 13 14 15 45 10 30 -5 40 -3 45 10 14 38 -71
59 -114 29z m72 -135 c0 -30 -32 -35 -49 -7 -8 14 -8 20 4 27 24 16 45 7 45
-20z"/>
<path d="M1420 531 c-108 -57 -109 -206 -1 -278 46 -31 102 -30 158 2 49 29
51 35 23 60 -18 16 -22 17 -61 1 -68 -27 -129 8 -129 74 0 70 86 114 151 79
15 -7 24 -7 35 2 22 18 17 38 -18 59 -42 25 -112 26 -158 1z"/>
<path d="M1732 493 c-16 -32 -35 -76 -42 -98 -7 -22 -23 -61 -36 -87 -33 -66
-32 -78 12 -78 30 0 37 4 45 30 11 29 13 30 74 30 60 0 65 -2 77 -27 10 -21
22 -29 47 -31 31 -3 33 -1 28 20 -3 13 -28 75 -56 138 -29 63 -56 125 -61 138
-6 14 -18 22 -35 22 -20 0 -30 -10 -53 -57z m78 -115 c0 -13 -8 -18 -30 -18
-35 0 -34 -3 -14 46 l16 38 14 -24 c7 -14 13 -33 14 -42z"/>
<path d="M1940 515 c0 -33 2 -35 34 -35 18 0 38 -6 44 -13 6 -7 13 -62 14
-123 l3 -109 31 -3 c31 -3 31 -2 37 50 4 29 7 85 7 125 l0 72 43 3 c39 3 42 5
45 36 l3 32 -130 0 -131 0 0 -35z"/>
<path d="M2292 530 c-77 -47 -96 -147 -42 -225 17 -24 40 -51 52 -60 44 -30
142 -14 178 30 11 13 9 19 -10 40 -21 22 -25 23 -40 10 -9 -8 -33 -15 -54 -15
-50 0 -86 36 -86 85 0 68 67 104 135 73 21 -9 29 -9 42 4 22 22 10 46 -32 63
-48 21 -104 19 -143 -5z"/>
<path d="M2530 390 l0 -160 35 0 35 0 0 65 0 65 60 0 60 0 0 -65 c0 -62 1 -65
25 -65 13 0 28 8 33 18 5 9 10 79 11 155 l2 137 -35 0 -36 0 0 -55 0 -55 -60
0 -60 0 0 54 c0 56 -8 66 -51 66 -18 0 -19 -9 -19 -160z"/>
<path d="M2970 438 c0 -126 8 -151 59 -185 60 -41 144 -26 190 33 19 24 21 40
21 145 l0 119 -35 0 -35 0 0 -103 c0 -95 -2 -105 -23 -125 -30 -28 -58 -28
-85 1 -20 21 -22 34 -22 125 l0 102 -35 0 -35 0 0 -112z"/>
<path d="M3302 394 l3 -159 33 -3 c32 -3 32 -3 32 41 l0 44 48 7 c67 9 108 37
123 84 9 32 9 45 -2 67 -26 53 -62 70 -155 74 l-85 3 3 -158z m149 76 c26 -15
24 -46 -5 -66 -37 -24 -70 -15 -74 19 -2 16 -1 35 2 43 6 16 49 19 77 4z"/>
<path d="M333 75 c0 -44 2 -61 4 -37 2 23 2 59 0 80 -2 20 -4 1 -4 -43z"/>
</g>
</svg>
